<?xml version="1.0" encoding="utf-8"?>
<!-- Generator: Adobe Illustrator 24.0.3, SVG Export Plug-In . SVG Version: 6.00 Build 0)  -->
<svg version="1.1" id="Layer_1" xmlns="http://www.w3.org/2000/svg" xmlns:xlink="http://www.w3.org/1999/xlink" x="0px" y="0px"
	 viewBox="0 0 24 24" style="enable-background:new 0 0 24 24;" xml:space="preserve">
<style type="text/css">
	.st0{fill:#B33771;}
	.st1{fill:#FFFFFF;}
</style>
<circle class="st0" cx="12" cy="12" r="11.7"/>
<g>
	<path id="Path_32" class="st1" d="M18.9,9.9c0,1.6-1.3,2.9-2.9,2.9c-1.6,0-2.9-1.3-2.9-2.9C13.1,8.3,14.4,7,16,7
		C17.6,7,18.9,8.3,18.9,9.9z M18.2,12.9c-1.3,1-3.2,1-4.5,0c-1.5,0.8-2.5,2.4-2.7,4.1h9.9C20.7,15.3,19.7,13.8,18.2,12.9L18.2,12.9z
		"/>
	<g id="Group_33">
		<path id="Path_33" class="st1" d="M8,12.8c1.6,0,2.9-1.3,2.9-2.9C10.9,8.3,9.6,7,8,7C6.4,7,5.1,8.3,5.1,9.9l0,0
			C5.1,11.5,6.4,12.8,8,12.8z"/>
		<path id="Path_34" class="st1" d="M10.3,12.9c-1.3,1-3.2,1-4.5,0c-1.5,0.8-2.5,2.4-2.7,4.1h7.1c0.1-1.1,0.6-2.2,1.4-3
			C11.2,13.5,10.8,13.1,10.3,12.9z"/>
	</g>
</g>
</svg>
