<?xml version="1.0" encoding="utf-8"?>
<!-- Generator: Adobe Illustrator 24.0.3, SVG Export Plug-In . SVG Version: 6.00 Build 0)  -->
<svg version="1.1" id="Layer_1" xmlns="http://www.w3.org/2000/svg" xmlns:xlink="http://www.w3.org/1999/xlink" x="0px" y="0px"
	 viewBox="0 0 24 24" style="enable-background:new 0 0 24 24;" xml:space="preserve">
<style type="text/css">
	.st0{fill:#B33771;}
	.st1{fill:#9D9DB4;}
	.st2{fill:#FFFFFF;}
</style>
<circle class="st0" cx="12" cy="12" r="11.7"/>
<g>
	<path class="st1" d="M18.2,15.2L18.2,15.2c0,1-0.6,1.7-1.4,1.7H7.1c-0.8,0-1.4-0.8-1.4-1.7l0,0c0-1,0.6-1.7,1.4-1.7h9.8
		C17.7,13.4,18.2,14.2,18.2,15.2z"/>
	<path class="st2" d="M5.8,8.9L5.8,8.9c0-1,0.6-1.7,1.4-1.7H17c0.8,0,1.4,0.8,1.4,1.7l0,0c0,1-0.6,1.7-1.4,1.7H7.1
		C6.3,10.8,5.8,9.9,5.8,8.9z"/>
</g>
</svg>
