<?xml version="1.0" encoding="utf-8"?>
<!-- Generator: Adobe Illustrator 24.0.3, SVG Export Plug-In . SVG Version: 6.00 Build 0)  -->
<svg version="1.1" id="Layer_1" xmlns="http://www.w3.org/2000/svg" xmlns:xlink="http://www.w3.org/1999/xlink" x="0px" y="0px"
	 viewBox="0 0 24 24" style="enable-background:new 0 0 24 24;" xml:space="preserve">
<style type="text/css">
	.st0{fill:#9D9DB4;}
</style>
<g>
	<title>Layer 1</title>
	<g id="layer1">
		<path id="path2974" class="st0" d="M11.9,9c0.5,0,1-0.3,1-0.6l0.5-5.8c0-0.6-0.7-1-1.5-1s-1.5,0.5-1.5,1l0.5,5.8
			C10.9,8.8,11.3,9,11.9,9L11.9,9"/>
		<path id="path2976" class="st0" d="M8.7,10.9c0.3-0.5,0.2-1,0-1.2L3.9,6.3C3.4,6,2.6,6.4,2.2,7.1S1.9,8.7,2.4,9l5.3,2.5
			C8,11.5,8.4,11.3,8.7,10.9L8.7,10.9"/>
		<path id="path2978" class="st0" d="M15,10.9c0.3,0.5,0.7,0.7,1,0.6L21.3,9c0.5-0.3,0.6-1.1,0.1-1.8c-0.4-0.7-1.2-1.1-1.7-0.8
			L15,9.7C14.8,9.9,14.7,10.4,15,10.9L15,10.9"/>
		<path id="path2980" class="st0" d="M11.9,16.3c0.5,0,1,0.3,1,0.6l0.5,5.8c0,0.6-0.7,1-1.5,1s-1.5-0.5-1.5-1l0.5-5.8
			C10.9,16.6,11.3,16.3,11.9,16.3L11.9,16.3"/>
		<path id="path2982" class="st0" d="M15,14.5c0.3-0.5,0.7-0.7,1-0.6l5.3,2.5c0.5,0.3,0.6,1.1,0.1,1.8c-0.4,0.7-1.2,1.1-1.7,0.8
			L15,15.7C14.8,15.5,14.7,14.9,15,14.5L15,14.5"/>
		<path id="path2984" class="st0" d="M8.7,14.5c0.3,0.4,0.2,1,0,1.2l-4.8,3.4c-0.5,0.3-1.2-0.1-1.7-0.8c-0.4-0.7-0.3-1.6,0.1-1.8
			L7.6,14C8,13.8,8.4,14,8.7,14.5L8.7,14.5"/>
	</g>
</g>
</svg>
