<?xml version="1.0" encoding="utf-8"?>
<!-- Generator: Adobe Illustrator 24.0.3, SVG Export Plug-In . SVG Version: 6.00 Build 0)  -->
<svg version="1.1" id="Layer_1" xmlns="http://www.w3.org/2000/svg" xmlns:xlink="http://www.w3.org/1999/xlink" x="0px" y="0px"
	 viewBox="0 0 24 24" style="enable-background:new 0 0 24 24;" xml:space="preserve">
<style type="text/css">
	.st0{fill:#9D9DB4;}
</style>
<g>
	<path class="st0" d="M20.8,18.8L20.8,18.8c-1.1,1.1-2.8,1.1-3.8,0L3.2,5.1C2.1,4,2.1,2.3,3.2,1.2l0,0c1.1-1.1,2.8-1.1,3.8,0
		l13.6,13.6C21.9,16,21.9,17.7,20.8,18.8z"/>
	<path class="st0" d="M20.8,1.2L20.8,1.2c1.1,1.1,1.1,2.8,0,3.8L7.1,18.8c-1.1,1.1-2.8,1.1-3.8,0l0,0c-1.1-1.1-1.1-2.8,0-3.8
		L16.8,1.3C18,0.1,19.7,0.1,20.8,1.2z"/>
</g>
</svg>
