<svg id="Layer_1" data-name="Layer 1" xmlns="http://www.w3.org/2000/svg" viewBox="0 0 275.97 47.37"><defs><style>.cls-1{fill:#2b2e42;}.cls-2{fill:#fff;}.cls-3{fill:#585a87;}.cls-4{fill:#b33771;}</style></defs><title>dlorean-logo</title><path class="cls-1" d="M128,21.77h12.1a32.79,32.79,0,0,1,8.09.87,15,15,0,0,1,6.13,3.29q7.15,6.12,7.15,18.62a36.46,36.46,0,0,1-.72,7.53,22.23,22.23,0,0,1-2.22,6.14,19,19,0,0,1-3.84,4.89,15.83,15.83,0,0,1-4,2.66,18.16,18.16,0,0,1-4.7,1.4,34.8,34.8,0,0,1-5.68.41H128.14a7.55,7.55,0,0,1-3.81-.76,3.53,3.53,0,0,1-1.67-2.16,13.74,13.74,0,0,1-.39-3.61V27.46a6,6,0,0,1,1.34-4.35A6,6,0,0,1,128,21.77Zm3.6,7.34v31.1h7c1.54,0,2.75-.05,3.62-.13a11.29,11.29,0,0,0,2.72-.62,7.62,7.62,0,0,0,2.44-1.41Q152,54.11,152,44.49q0-6.78-2.05-10.16a9.16,9.16,0,0,0-5.05-4.3,25,25,0,0,0-7.25-.92Z" transform="translate(-122.27 -20.99)"/><path class="cls-2" d="M173.55,26.61V60h18.81a5,5,0,0,1,3.46,1.09A3.57,3.57,0,0,1,197,63.8a3.47,3.47,0,0,1-1.19,2.73,5.07,5.07,0,0,1-3.47,1H170c-2,0-3.48-.45-4.36-1.34a6,6,0,0,1-1.33-4.35V26.61a6.12,6.12,0,0,1,1.27-4.22,4.27,4.27,0,0,1,3.32-1.4,4.43,4.43,0,0,1,3.4,1.39A6,6,0,0,1,173.55,26.61Z" transform="translate(-122.27 -20.99)"/><path class="cls-1" d="M215,21a24.46,24.46,0,0,1,12.24,2.89,18.79,18.79,0,0,1,7.73,8.22,28,28,0,0,1,2.63,12.51,30.61,30.61,0,0,1-1.44,9.66,21.09,21.09,0,0,1-4.31,7.53,18.82,18.82,0,0,1-7.07,4.87,27.83,27.83,0,0,1-19.21,0,19.19,19.19,0,0,1-7.1-4.89,20.9,20.9,0,0,1-4.29-7.6,30.55,30.55,0,0,1-1.46-9.59,29.66,29.66,0,0,1,1.52-9.69,20.85,20.85,0,0,1,4.39-7.5,18.91,18.91,0,0,1,7-4.73A25.05,25.05,0,0,1,215,21Zm13.19,23.56a21.58,21.58,0,0,0-1.62-8.72,12.17,12.17,0,0,0-4.64-5.58A12.8,12.8,0,0,0,215,28.36a12.53,12.53,0,0,0-5.14,1.05,11.31,11.31,0,0,0-4.06,3.05,14.46,14.46,0,0,0-2.69,5.11,23.26,23.26,0,0,0-1,7,23.86,23.86,0,0,0,1,7.06,14.68,14.68,0,0,0,2.78,5.24A11.83,11.83,0,0,0,210,60a13,13,0,0,0,11.66-.75,12.4,12.4,0,0,0,4.75-5.5A21.41,21.41,0,0,0,228.15,44.55Z" transform="translate(-122.27 -20.99)"/><path class="cls-1" d="M252.84,48h-3.25V62.71A6.1,6.1,0,0,1,248.31,67,4.37,4.37,0,0,1,245,68.36a4.26,4.26,0,0,1-3.44-1.44,6.35,6.35,0,0,1-1.22-4.21V27.46a6,6,0,0,1,1.35-4.35A6,6,0,0,1,246,21.77h15.09a47.66,47.66,0,0,1,5.35.26,13.59,13.59,0,0,1,4,1.08,11.64,11.64,0,0,1,3.81,2.6,11.47,11.47,0,0,1,2.52,3.92,13.13,13.13,0,0,1,.85,4.73,11.43,11.43,0,0,1-2.89,8.19c-1.92,2-4.85,3.49-8.76,4.34a17.14,17.14,0,0,1,4.72,3.88,42.41,42.41,0,0,1,6.76,10.67,10.26,10.26,0,0,1,1,3.2,3.31,3.31,0,0,1-.58,1.8,4.16,4.16,0,0,1-1.58,1.41,5,5,0,0,1-2.31.51,4.53,4.53,0,0,1-2.63-.73,6.86,6.86,0,0,1-1.82-1.86c-.52-.75-1.21-1.86-2.08-3.31l-3.72-6.19a34.9,34.9,0,0,0-3.58-5.19,8.84,8.84,0,0,0-3.2-2.44A11.22,11.22,0,0,0,252.84,48Zm5.32-19.25h-8.57V41.33h8.32a23.05,23.05,0,0,0,5.62-.58,6.6,6.6,0,0,0,3.49-2,5.64,5.64,0,0,0,1.2-3.82,5.89,5.89,0,0,0-1-3.36,5.79,5.79,0,0,0-2.69-2.17C263.48,29,261.34,28.74,258.16,28.74Z" transform="translate(-122.27 -20.99)"/><path class="cls-1" d="M311.47,28.93h-20.9V40.18h19.25a4.57,4.57,0,0,1,3.17,1A3.22,3.22,0,0,1,314,43.64a3.36,3.36,0,0,1-1,2.55,4.44,4.44,0,0,1-3.18,1H290.57v13h21.62a4.77,4.77,0,0,1,3.3,1,3.49,3.49,0,0,1,1.11,2.7,3.43,3.43,0,0,1-1.11,2.65,4.77,4.77,0,0,1-3.3,1H287c-2,0-3.47-.45-4.36-1.34a6.05,6.05,0,0,1-1.32-4.35V27.46a7.65,7.65,0,0,1,.59-3.27,3.67,3.67,0,0,1,1.86-1.84,7.71,7.71,0,0,1,3.23-.58h24.5a4.8,4.8,0,0,1,3.3,1,3.34,3.34,0,0,1,1.08,2.58,3.37,3.37,0,0,1-1.08,2.61A4.75,4.75,0,0,1,311.47,28.93Z" transform="translate(-122.27 -20.99)"/><path class="cls-1" d="M348.17,62.39,346,56.64H327.35l-2.18,5.88A21,21,0,0,1,323,67.16a3.49,3.49,0,0,1-3,1.2,4.3,4.3,0,0,1-3.09-1.28,3.91,3.91,0,0,1-1.35-2.91,6.39,6.39,0,0,1,.32-1.93c.2-.67.55-1.6,1-2.78l11.72-29.75c.33-.86.73-1.88,1.2-3.08a16,16,0,0,1,1.5-3,6.13,6.13,0,0,1,2.09-1.92,7.47,7.47,0,0,1,6.44,0A6.25,6.25,0,0,1,342,23.61a13.55,13.55,0,0,1,1.35,2.49c.36.88.83,2.06,1.39,3.54l12,29.57a15,15,0,0,1,1.4,4.9A4,4,0,0,1,356.74,67a4.33,4.33,0,0,1-3.2,1.33,4.13,4.13,0,0,1-1.87-.39,3.89,3.89,0,0,1-1.32-1.06,10.38,10.38,0,0,1-1.14-2.06C348.81,63.92,348.46,63.1,348.17,62.39ZM329.79,49.67h13.69l-6.91-18.9Z" transform="translate(-122.27 -20.99)"/><path class="cls-1" d="M371.86,26.55l17.84,27V26.3a6,6,0,0,1,1.14-4A3.84,3.84,0,0,1,393.92,21a4,4,0,0,1,3.16,1.33,5.91,5.91,0,0,1,1.15,4v36c0,4-1.66,6-5,6A6.64,6.64,0,0,1,391,68a5.74,5.74,0,0,1-1.87-1.14A10.74,10.74,0,0,1,387.48,65c-.5-.69-1-1.41-1.5-2.14l-17.4-26.68V63.05a5.75,5.75,0,0,1-1.22,4,4.05,4.05,0,0,1-3.13,1.34A4,4,0,0,1,361.08,67a5.83,5.83,0,0,1-1.19-4V27.71a10.06,10.06,0,0,1,.5-3.53,5,5,0,0,1,2-2.3,5.3,5.3,0,0,1,3-.89,4.8,4.8,0,0,1,3.7,1.5,11.27,11.27,0,0,1,1.38,1.78Z" transform="translate(-122.27 -20.99)"/><rect class="cls-3" x="41.07" y="0.38" width="8.83" height="46.14" rx="4.41"/><rect class="cls-4" x="41.07" y="37.6" width="33.12" height="8.91" rx="4.46"/></svg>