<?xml version="1.0" encoding="utf-8"?>
<!-- Generator: Adobe Illustrator 24.0.3, SVG Export Plug-In . SVG Version: 6.00 Build 0)  -->
<svg version="1.1" id="Layer_1" xmlns="http://www.w3.org/2000/svg" xmlns:xlink="http://www.w3.org/1999/xlink" x="0px" y="0px"
	 viewBox="0 0 24 24" style="enable-background:new 0 0 24 24;" xml:space="preserve">
<style type="text/css">
	.st0{fill:#B33771;}
	.st1{fill:#FFFFFF;}
</style>
<circle class="st0" cx="12" cy="12" r="11.7"/>
<g>
	<g>
		<path class="st1" d="M8.6,15.3c-0.8-0.8-1-1.8-0.5-2.4l6.7-6.7c0.5-0.5,1.6-0.3,2.4,0.5c0.8,0.8,1,1.8,0.5,2.4L11,15.8
			C10.5,16.4,9.4,16.1,8.6,15.3z"/>
	</g>
	<g>
		<path class="st1" d="M9.3,17.6c0.5-0.1,0.7-0.4,0.3-0.8l-2.3-2.3c-0.4-0.4-0.8-0.3-0.8,0.3L6.2,17C6.1,17.6,6.5,18,7,17.9
			L9.3,17.6z"/>
	</g>
</g>
</svg>
