<svg id="Layer_1" data-name="Layer 1" xmlns="http://www.w3.org/2000/svg" viewBox="0 0 21 13"><defs><style>.cls-1{fill:#9d9db4;}</style></defs><title>hamburger</title><g id="Group_233" data-name="Group 233"><path id="Rectangle_107" data-name="Rectangle 107" class="cls-1" d="M16,11H34a1.5,1.5,0,0,1,1.5,1.5h0A1.5,1.5,0,0,1,34,14H16a1.5,1.5,0,0,1-1.5-1.5h0A1.5,1.5,0,0,1,16,11Z" transform="translate(-14.5 -11)"/><path id="Rectangle_108" data-name="Rectangle 108" class="cls-1" d="M16,16H34a1.5,1.5,0,0,1,1.5,1.5h0A1.5,1.5,0,0,1,34,19H16a1.5,1.5,0,0,1-1.5-1.5h0A1.5,1.5,0,0,1,16,16Z" transform="translate(-14.5 -11)"/><path id="Rectangle_109" data-name="Rectangle 109" class="cls-1" d="M16,21H34a1.5,1.5,0,0,1,1.5,1.5h0A1.5,1.5,0,0,1,34,24H16a1.5,1.5,0,0,1-1.5-1.5h0A1.5,1.5,0,0,1,16,21Z" transform="translate(-14.5 -11)"/></g></svg>