<?xml version="1.0" encoding="utf-8"?>
<!-- Generator: Adobe Illustrator 24.0.3, SVG Export Plug-In . SVG Version: 6.00 Build 0)  -->
<svg version="1.1" id="Layer_1" xmlns="http://www.w3.org/2000/svg" xmlns:xlink="http://www.w3.org/1999/xlink" x="0px" y="0px"
	 viewBox="0 0 640 360" style="enable-background:new 0 0 640 360;" xml:space="preserve">
<style type="text/css">
	.st0{fill:#F7F7F7;}
	.st1{fill:#9D9DB4;}
</style>
<g>
	<rect x="0" class="st0" width="640.1" height="360"/>
</g>
<g>
	<g>
		<path class="st1" d="M387.8,132.7c2.2,0,4,1.8,4,4v86.6c0,2.2-1.8,4-4,4H252.2c-2.2,0-4-1.8-4-4v-86.6c0-2.2,1.8-4,4-4H387.8
			 M387.8,126.7H252.2c-5.5,0-10,4.5-10,10v86.6c0,5.5,4.5,10,10,10h135.5c5.5,0,10-4.5,10-10v-86.6
			C397.8,131.2,393.3,126.7,387.8,126.7L387.8,126.7z"/>
	</g>
	<g>
		<circle class="st1" cx="277.6" cy="156.2" r="11.4"/>
		<g>
			<path class="st1" d="M375.6,209.9c3.8,0,5.3-2.6,3.1-5.8L347.3,157c-2.1-3.2-5.6-3.2-7.8,0l-11.8,17.7c-2.1,3.2-6.1,3.6-8.8,0.9
				l-9.7-9.7c-2.7-2.7-6.6-2.2-8.6,1.1l-22.2,37c-2,3.3-0.5,6,3.4,6H375.6z"/>
		</g>
	</g>
</g>
</svg>
