<?xml version="1.0" encoding="utf-8"?>
<!-- Generator: Adobe Illustrator 24.0.3, SVG Export Plug-In . SVG Version: 6.00 Build 0)  -->
<svg version="1.1" id="Layer_1" xmlns="http://www.w3.org/2000/svg" xmlns:xlink="http://www.w3.org/1999/xlink" x="0px" y="0px"
	 viewBox="0 0 24 24" style="enable-background:new 0 0 24 24;" xml:space="preserve">
<style type="text/css">
	.st0{fill:#9D9DB4;}
	.st1{fill:#FFFFFF;}
</style>
<circle class="st0" cx="12" cy="12" r="11.7"/>
<g>
	<path class="st1" d="M15.1,5.6L15.1,5.6c0.6,0.6,0.6,1.5,0,2.1l-5.5,5.5c-0.6,0.6-1.5,0.6-2.1,0l0,0c-0.6-0.6-0.6-1.5,0-2.1L13,5.6
		C13.5,5,14.5,5,15.1,5.6z"/>
	<path class="st1" d="M7.4,11.2L7.4,11.2c-0.6,0.6-0.6,1.5,0,2.1l5.5,5.5c0.6,0.6,1.5,0.6,2.1,0l0,0c0.6-0.6,0.6-1.5,0-2.1l-5.5-5.5
		C8.9,10.7,8,10.7,7.4,11.2z"/>
</g>
</svg>
