<?xml version="1.0" encoding="utf-8"?>
<!-- Generator: Adobe Illustrator 24.0.3, SVG Export Plug-In . SVG Version: 6.00 Build 0)  -->
<svg version="1.1" id="Layer_1" xmlns="http://www.w3.org/2000/svg" xmlns:xlink="http://www.w3.org/1999/xlink" x="0px" y="0px"
	 viewBox="0 0 24 24" style="enable-background:new 0 0 24 24;" xml:space="preserve">
<style type="text/css">
	.st0{fill:#9D9DB4;}
</style>
<g>
	<path class="st0" d="M7.8,7c0-2.3,1.9-4.2,4.2-4.2s4.2,1.9,4.2,4.2v4h2.1V7c0-3.4-2.8-6.3-6.3-6.3S5.7,3.6,5.7,7v3.1h2.1
		C7.8,10.1,7.8,7,7.8,7z"/>
	<g>
		<path class="st0" d="M19.5,21.9c0,1.1-0.9,2.1-2.1,2.1H6.6c-1.1,0-2.1-0.9-2.1-2.1v-9.8c0-1.1,0.9-2.1,2.1-2.1h10.9
			c1.1,0,2.1,0.9,2.1,2.1V21.9z"/>
	</g>
</g>
</svg>
