<?xml version="1.0" encoding="utf-8"?>
<!-- Generator: Adobe Illustrator 24.0.3, SVG Export Plug-In . SVG Version: 6.00 Build 0)  -->
<svg version="1.1" id="Layer_1" xmlns="http://www.w3.org/2000/svg" xmlns:xlink="http://www.w3.org/1999/xlink" x="0px" y="0px"
	 viewBox="0 0 24 24" style="enable-background:new 0 0 24 24;" xml:space="preserve">
<style type="text/css">
	.st0{fill:#9D9DB4;}
	.st1{fill:#FFFFFF;stroke:#FFFFFF;stroke-width:0.25;stroke-miterlimit:10;}
</style>
<g>
	<g>
		<circle class="st0" cx="12" cy="12.2" r="11.7"/>
		<path class="st1" d="M8.1,1.4c0.1,0,0.1,0.2,0.2,0.2c0.1,0,0.1-0.3,0.2-0.4c0.1-0.1,0.3,0,0.5,0.1c0.2,0.2,0.1,0.5,0.2,1.1
			C9.3,2.7,9.4,2.9,9.5,3c0.2,0.3,0.5,0.2,0.7,0.4c0.2,0.2,0,0.4,0.2,0.6c0.2,0.2,0.7,0.1,0.9,0.1C11.7,4,11.8,3.8,12,3.9
			c0.2,0.1,0.3,0.3,0.3,0.4c0,0.3-0.3,0.5-0.7,1c-0.4,0.5-0.7,0.8-0.6,1.2c0.1,0.3,0.5,0.6,0.8,0.6c0.2,0,0.4-0.1,0.5,0
			c0.1,0.2-0.2,0.5-0.1,0.7c0.1,0.2,0.5,0.4,0.7,0.2C13,8.1,13,8,13.1,7.4c0.1-0.6,0.1-0.6,0.1-0.8c0-0.5-0.1-0.6,0-0.7
			c0.1-0.2,0.6-0.1,0.7,0.1c0.2,0.2,0.1,0.7,0.2,0.7c0.1,0,0.2-0.3,0.4-0.3c0.2,0,0.3,0.3,0.4,0.4C15,7,14.9,7,15,7.1
			c0.2,0.2,0.4,0.1,0.7,0.3c0,0,0.2,0.2,0.2,0.3c0,0.3-0.5,0.4-0.7,0.5c-0.5,0.2-0.7,0.1-0.9,0.2c-0.3,0.3-0.4,0.8-0.3,0.8
			C14,9.3,14.3,8.9,14.7,9c0.2,0,0.4,0.3,0.4,0.4c0,0.1-0.2,0.1-0.7,0.4C14,10,14,10,13.9,10.1c-0.1,0.2,0,0.3-0.1,0.4
			c-0.1,0.1-0.4-0.1-0.6,0.1c-0.1,0.1-0.1,0.2-0.1,0.5c-0.1,0.4-0.1,0.6-0.2,0.7c-0.2,0.4-0.7,0.3-0.9,0.6c0,0.1,0,0.1,0.1,0.6
			c0,0,0,0.1,0,0.6c-0.1-0.2-0.2-0.6-0.6-0.9c-0.5-0.3-1.1-0.5-1.7-0.2c-0.1,0-0.8,0.4-0.9,1.1c-0.1,0.6,0.3,1.2,0.6,1.2
			c0.2,0,0.2-0.2,0.6-0.3c0.2-0.1,0.5-0.1,0.6,0c0.1,0.1-0.1,0.2-0.2,0.7c-0.1,0.3,0,0.3,0,0.3c0.1,0.1,0.3,0.2,0.6,0.2
			c0.3,0,0.4,0,0.4,0.1c0.1,0.1-0.1,0.3,0,0.7c0,0.1,0.1,0.4,0.2,0.5c0.2,0.1,0.5-0.2,0.8,0c0.2,0.1,0.2,0.2,0.3,0.2c0,0,0,0,0,0
			c0.2,0,0.4-0.2,0.6-0.3c0.1-0.1,0.2-0.1,0.7-0.1c1,0,1.2,0.2,1.9,0.2c0.4,0,0.5-0.1,0.8-0.1c0.4,0,0.5,0.2,0.9,0.2
			c0.5,0.1,0.8,0,0.9,0.1c0.1,0.2-0.4,0.6-0.3,0.8c0.1,0.2,0.5,0.1,0.7,0.1c0.6,0,0.8-0.3,1.3-0.4c0.4-0.1,0.7,0,0.8,0.2
			c0.1,0.2-0.1,0.3-0.4,0.9c-0.2,0.4-0.2,0.7-0.2,0.7c0,0.3,0.1,0.5,0.1,0.6c0.1,1-5.3,3-5.5,2.4c-0.1-0.3,0-1-0.1-1.4
			c-0.1-0.3-0.6-0.3-1.2-0.5c-0.5-0.2-1.2-0.5-1.5-1.1c-0.1-0.3-0.2-0.7,0-1c0.2-0.2,0.5-0.1,0.7-0.4c0.1-0.2,0.3-0.4,0.2-0.6
			c-0.1-0.1-0.2-0.2-1-0.4c-0.5-0.1-0.7-0.2-0.8-0.3c-0.1-0.1-0.1-0.2-0.3-0.4c-0.1-0.2-0.2-0.3-0.3-0.3c-0.2-0.2-0.4,0-0.6-0.1
			c-0.3-0.1-0.3-0.4-0.6-0.6c-0.3-0.3-0.6-0.2-1-0.4c-0.2-0.1-0.8-0.4-1-0.9c-0.2-0.3,0-0.4-0.2-1c-0.2-0.6-0.3-0.5-0.4-0.9
			c-0.1-0.5,0-0.8-0.3-1.2c0-0.1-0.1,0-0.2,0c-0.1,0-0.3,0.5-0.2,0.9c0.1,0.4,0.4,0.9,0.3,0.9c0,0,0.1,0.2-0.1,0.3
			c-0.3,0.2-0.2-0.4-0.5-1c-0.2-0.4-0.1-0.6-0.2-0.8c-0.1-0.4,0.2-0.6,0.4-1.2c0,0,0-0.1-0.1-0.4c-0.2-1-0.2-0.9-0.2-1
			c0-0.7,1-0.8,1.2-1.9C7.2,6.5,7,6.5,7.1,5.8c0.1-0.8,0.4-1,0.5-1.7c0-0.2,0.1-1.1-0.3-1.3C7.1,2.7,6.7,2.9,6.5,2.7
			C6.4,2.6,6.5,2.3,6.6,2.1c0.2-0.2,0.5-0.3,0.6-0.3c0.3,0,0.5,0.2,0.6,0.1C8.1,1.8,8,1.4,8.1,1.4z"/>
		<path class="st1" d="M10.3,2.8c0-0.1,0.3-0.4,0.5-0.3c0.1,0,0.2,0.2,0.2,0.3c0,0.1-0.3,0.1-0.3,0.2C10.6,2.9,10.3,2.9,10.3,2.8z"
			/>
		<path class="st1" d="M10.6,3.5c0-0.1,0-0.3,0.2-0.4c0.2-0.1,0.4,0,0.4,0c0.1,0.1,0.3,0.2,0.3,0.4c0,0.1,0,0.2-0.1,0.2
			C11.2,4,10.7,3.8,10.6,3.5z"/>
		<path class="st1" d="M12.3,3.5c0,0.1,0.1,0.1,0.2,0.3c0.2,0.3,0.2,0.3,0.3,0.3c0.3,0.2,0.5,0.1,0.6,0.2c0.1,0.2-0.3,0.4-0.2,0.7
			c0.1,0.2,0.5,0.4,0.8,0.3c0.3-0.1,0.4-0.4,0.4-0.7c0-0.5-0.5-0.8-0.7-0.9c-0.3-0.2-0.4-0.1-0.7-0.4c-0.2-0.2-0.3-0.3-0.4-0.3
			C12.4,3.2,12.2,3.3,12.3,3.5z"/>
		<path class="st1" d="M12.6,2c0,0.1,0.2,0.2,0.2,0.4c0,0.2-0.1,0.4-0.1,0.5C12.9,3,13.1,3,13.2,3c0.2-0.1,0.1-0.3,0.2-0.6
			c0.1-0.3,0.3-0.3,0.3-0.4C13.6,1.8,12.7,1.8,12.6,2z"/>
		<path class="st1" d="M13.7,3c-0.2-0.2,0-0.9,0.5-1.2c0.4-0.2,0.7-0.1,0.8,0c0.3,0.1,0.2,0.2,0.7,0.5c0.3,0.2,0.5,0.3,0.8,0.5
			c0.3,0.2,0.3,0.3,0.3,0.4c0,0.3-0.2,0.4-0.3,0.7c0,0.2,0,0.2,0.1,0.7c0.1,0.6,0.2,0.9,0.1,1c-0.1,0.1-0.4-0.1-0.8-0.4
			c-0.8-0.5-0.8-0.8-0.8-0.8c0-0.2,0.1-0.2,0.1-0.3c0-0.2-0.2-0.1-0.5-0.3c-0.3-0.2-0.3-0.5-0.5-0.6C14,2.9,13.8,3.1,13.7,3z"/>
		<path class="st1" d="M11.8,14.5c0,0.1,0.2,0,0.5,0.2c0.4,0.2,0.3,0.5,0.6,0.6c0.2,0.1,0.5-0.1,0.5-0.2c0-0.1-0.2-0.1-0.5-0.2
			c-0.4-0.2-0.4-0.5-0.7-0.5C11.9,14.3,11.8,14.4,11.8,14.5z"/>
		<path class="st1" d="M13.8,15.4c0,0.1,0.3,0,0.4,0c0,0,0.3-0.1,0.3-0.2c0-0.1-0.2-0.2-0.4-0.2C14,15,13.8,15.3,13.8,15.4z"/>
	</g>
</g>
</svg>
