<?xml version="1.0" encoding="utf-8"?>
<!-- Generator: Adobe Illustrator 24.0.3, SVG Export Plug-In . SVG Version: 6.00 Build 0)  -->
<svg version="1.1" id="Layer_1" xmlns="http://www.w3.org/2000/svg" xmlns:xlink="http://www.w3.org/1999/xlink" x="0px" y="0px"
	 viewBox="0 0 24 24" style="enable-background:new 0 0 24 24;" xml:space="preserve">
<style type="text/css">
	.st0{fill:#9D9DB4;}
	.st1{fill:#FFFFFF;}
</style>
<circle class="st0" cx="12" cy="12" r="11.7"/>
<g>
	<path class="st1" d="M8.2,18.9L8.2,18.9c-0.6-0.6-0.6-1.5,0-2.1l5.5-5.5c0.6-0.6,1.5-0.6,2.1,0l0,0c0.6,0.6,0.6,1.5,0,2.1l-5.5,5.5
		C9.7,19.5,8.8,19.5,8.2,18.9z"/>
	<path class="st1" d="M15.8,13.2L15.8,13.2c0.6-0.6,0.6-1.5,0-2.1l-5.5-5.5C9.7,5,8.8,5,8.2,5.6l0,0c-0.6,0.6-0.6,1.5,0,2.1l5.5,5.5
		C14.3,13.8,15.2,13.8,15.8,13.2z"/>
</g>
</svg>
