<?xml version="1.0" encoding="utf-8"?>
<!-- Generator: Adobe Illustrator 24.0.3, SVG Export Plug-In . SVG Version: 6.00 Build 0)  -->
<svg version="1.1" id="Layer_1" xmlns="http://www.w3.org/2000/svg" xmlns:xlink="http://www.w3.org/1999/xlink" x="0px" y="0px"
	 viewBox="0 0 24 24" style="enable-background:new 0 0 24 24;" xml:space="preserve">
<style type="text/css">
	.st0{fill:#9D9DB4;}
</style>
<path class="st0" d="M12,12h3v2h-5V8h2V12z M21,11h-1.1c-0.3-2-1.2-3.8-2.6-5.1C16,4.7,16.1,3.7,15.4,0H7.6C6.9,3.7,7,4.7,5.7,5.9
	C4,7.4,3,9.6,3,12s1,4.6,2.7,6.1C7,19.3,7,20.4,7.6,24h7.9c0.6-3.6,0.6-4.7,1.9-5.8c1.4-1.3,2.4-3.1,2.7-5.2H21C21,13,21,11,21,11z
	 M11.5,18.5C7.9,18.5,5,15.6,5,12s2.9-6.5,6.5-6.5S18,8.4,18,12S15.1,18.5,11.5,18.5z"/>
</svg>
